<svg width="80" height="80" viewBox="0 0 80 80" fill="none" xmlns="http://www.w3.org/2000/svg">
<path d="M39.167 43.3332V36.6665L43.3337 39.7776L39.167 43.3332Z" fill="#38413B" stroke="#38413B" stroke-width="0.833333"/>
<path d="M39.7721 10.872C40.3161 10.872 40.7121 10.78 40.9601 10.596C41.2081 10.412 41.3321 10.152 41.3321 9.816C41.3321 9.616 41.2881 9.444 41.2001 9.3C41.1201 9.156 41.0001 9.028 40.8401 8.916C40.6881 8.796 40.5001 8.688 40.2761 8.592C40.0521 8.488 39.7961 8.388 39.5081 8.292C39.2201 8.188 38.9401 8.076 38.6681 7.956C38.4041 7.828 38.1681 7.672 37.9601 7.488C37.7601 7.304 37.5961 7.084 37.4681 6.828C37.3481 6.572 37.2881 6.264 37.2881 5.904C37.2881 5.152 37.5481 4.564 38.0681 4.14C38.5881 3.708 39.2961 3.492 40.1921 3.492C40.7121 3.492 41.1721 3.552 41.5721 3.672C41.9801 3.784 42.3001 3.908 42.5321 4.044L42.0641 5.268C41.7921 5.116 41.4921 5 41.1641 4.92C40.8441 4.84 40.5121 4.8 40.1681 4.8C39.7601 4.8 39.4401 4.884 39.2081 5.052C38.9841 5.22 38.8721 5.456 38.8721 5.76C38.8721 5.944 38.9081 6.104 38.9801 6.24C39.0601 6.368 39.1681 6.484 39.3041 6.588C39.4481 6.692 39.6121 6.788 39.7961 6.876C39.9881 6.964 40.1961 7.048 40.4201 7.128C40.8121 7.272 41.1601 7.42 41.4641 7.572C41.7761 7.716 42.0361 7.892 42.2441 8.1C42.4601 8.3 42.6241 8.54 42.7361 8.82C42.8481 9.092 42.9041 9.424 42.9041 9.816C42.9041 10.568 42.6361 11.152 42.1001 11.568C41.5721 11.976 40.7961 12.18 39.7721 12.18C39.4281 12.18 39.1121 12.156 38.8241 12.108C38.5441 12.068 38.2921 12.016 38.0681 11.952C37.8521 11.888 37.6641 11.824 37.5041 11.76C37.3441 11.688 37.2161 11.624 37.1201 11.568L37.5641 10.332C37.7801 10.452 38.0721 10.572 38.4401 10.692C38.8081 10.812 39.2521 10.872 39.7721 10.872Z" fill="#718176"/>
<path d="M48.7701 12.2431L51.9525 4.56013L56.886 6.60366L56.3946 7.78992L52.858 6.32501L52.0727 8.22081L55.2213 9.52499L54.7391 10.6891L51.5906 9.38489L50.6583 11.6355L54.461 13.2106L53.9697 14.3969L48.7701 12.2431Z" fill="#718176"/>
<path d="M58.725 17.712L64.6053 11.8317L68.3813 15.6077L67.4733 16.5156L64.7665 13.8088L63.3156 15.2598L65.7254 17.6696L64.8344 18.5606L62.4246 16.1507L60.7021 17.8733L63.6125 20.7837L62.7046 21.6916L58.725 17.712Z" fill="#718176"/>
<path d="M76.316 41.8077V43.3197H68V41.8077H71.684V38.1957H68V36.6837H76.316V38.1957H72.992V41.8077H76.316Z" fill="#718176"/>
<path d="M71.5053 50.6021C71.084 50.4276 70.6783 50.3201 70.288 50.2797C69.9052 50.2424 69.552 50.2692 69.2285 50.3604C68.9093 50.462 68.6251 50.6257 68.3757 50.8514C68.1263 51.0772 67.9282 51.3674 67.7812 51.7222C67.6373 52.0696 67.5737 52.4112 67.5904 52.7472C67.6071 53.0832 67.6939 53.3962 67.8509 53.6864C68.0121 53.9869 68.2413 54.2594 68.5384 54.5037C68.8429 54.7511 69.2058 54.962 69.6271 55.1365C70.0484 55.311 70.4505 55.4169 70.8333 55.4543C71.2236 55.4947 71.5783 55.4641 71.8975 55.3625C72.221 55.2714 72.5074 55.1129 72.7568 54.8872C73.0061 54.6614 73.2028 54.3749 73.3467 54.0275C73.4936 53.6727 73.5587 53.3273 73.542 52.9914C73.5253 52.6554 73.4364 52.3371 73.2751 52.0365C73.1108 51.7433 72.8801 51.4746 72.583 51.2303C72.2858 50.986 71.9266 50.7766 71.5053 50.6021ZM69.021 56.5999C68.3632 56.3274 67.8243 55.9873 67.4044 55.5796C66.9814 55.1793 66.6703 54.7387 66.4711 54.2579C66.2763 53.7875 66.1873 53.2917 66.204 52.7704C66.2208 52.2491 66.3348 51.7335 66.546 51.2235C66.7573 50.7136 67.0428 50.2647 67.4026 49.8768C67.7593 49.4964 68.1744 49.2051 68.6478 49.0028C69.1256 48.8111 69.6571 48.7195 70.2423 48.7281C70.8276 48.7367 71.4491 48.8773 72.1069 49.1497C72.7647 49.4222 73.2999 49.7608 73.7124 50.1655C74.1324 50.5732 74.4419 51.0175 74.6411 51.4983C74.8372 51.9865 74.9268 52.4912 74.9101 53.0125C74.8933 53.5338 74.7809 54.0457 74.5727 54.5483C74.3645 55.0509 74.082 55.4924 73.7253 55.8728C73.3686 56.2533 72.9513 56.5394 72.4735 56.7312C71.9927 56.9303 71.4597 57.0256 70.8744 57.017C70.2966 57.0114 69.6788 56.8724 69.021 56.5999Z" fill="#718176"/>
<path d="M65.0927 66.3562C64.6967 66.1412 64.281 65.9178 63.8454 65.6859C63.4155 65.4596 62.9799 65.2333 62.5386 65.007C62.0974 64.7921 61.6618 64.5771 61.2319 64.3622C60.802 64.1585 60.3947 63.9662 60.01 63.7852C60.2306 64.1755 60.4795 64.5884 60.7567 65.024C61.0396 65.4652 61.3337 65.9178 61.6392 66.3817C61.9503 66.8512 62.2699 67.3235 62.598 67.7987C62.9205 68.2795 63.2429 68.749 63.5654 69.2073L62.4623 70.3103C61.5968 69.0489 60.7935 67.8044 60.0525 66.5768C59.3171 65.3549 58.6524 64.1472 58.0584 62.9536L59.0766 61.9354C60.6606 62.6368 62.335 63.4571 64.0999 64.3961C63.6248 63.5023 63.1863 62.6396 62.7847 61.8081C62.3831 60.9765 62.0012 60.1648 61.6392 59.3728L62.6574 58.3546C63.8567 58.9429 65.0673 59.6047 66.2891 60.3401C67.511 61.0868 68.7527 61.8929 70.0142 62.7584L68.8687 63.904C68.4161 63.5872 67.9522 63.2647 67.4771 62.9366C66.9962 62.6142 66.5211 62.2974 66.0515 61.9863C65.582 61.6865 65.1238 61.398 64.6769 61.1208C64.23 60.8436 63.8114 60.5947 63.4211 60.3741C63.6021 60.7701 63.7973 61.1802 64.0066 61.6044C64.2159 62.04 64.4309 62.4756 64.6515 62.9112C64.8777 63.3524 65.1069 63.7852 65.3388 64.2094C65.5651 64.6393 65.7885 65.0495 66.0091 65.4398L65.0927 66.3562Z" fill="#718176"/>
<path d="M40.7563 76.316H39.2443V68H40.7563V76.316Z" fill="#718176"/>
<path d="M22.6548 73.2061L23.1554 71.9977L25.5168 72.9758L28.1987 66.5013L29.6067 67.0845L26.9248 73.5591L29.2863 74.5372L28.7857 75.7456L22.6548 73.2061Z" fill="#718176"/>
<path d="M6.04786 53.0967C6.39799 52.8131 6.76354 52.5145 7.1445 52.2008C7.51808 51.8902 7.89381 51.5744 8.27172 51.2533C8.63917 50.9279 9.00445 50.6078 9.36758 50.2929C9.72024 49.9736 10.0538 49.6709 10.3682 49.3848C9.92321 49.4392 9.44644 49.5112 8.93795 49.6006C8.42206 49.693 7.89139 49.7916 7.34594 49.8963C6.7931 50.0041 6.23439 50.1186 5.66983 50.2399C5.10221 50.3538 4.54504 50.472 3.99832 50.5945L3.40133 49.1533C4.898 48.8364 6.35517 48.5705 7.77285 48.3557C9.18315 48.1438 10.5533 47.9919 11.8834 47.9L12.4344 49.2303C11.1802 50.4253 9.78164 51.6583 8.23867 52.9296C9.24626 52.8326 10.211 52.7577 11.133 52.7049C12.055 52.652 12.951 52.6099 13.8213 52.5785L14.3723 53.9089C13.3699 54.7917 12.2951 55.6568 11.1481 56.5043C9.99066 57.3474 8.77075 58.1861 7.48839 59.0203L6.86844 57.5236C7.3343 57.2268 7.8097 56.9216 8.29467 56.6082C8.77657 56.2873 9.25108 55.9695 9.7182 55.6548C10.1749 55.3358 10.6168 55.0229 11.0439 54.7161C11.471 54.4093 11.8611 54.1178 12.2143 53.8416C11.7792 53.8573 11.3256 53.8807 10.8535 53.9117C10.371 53.9383 9.88634 53.9703 9.3995 54.0074C8.90526 54.0476 8.41778 54.0936 7.93705 54.1456C7.45326 54.1901 6.98885 54.2396 6.54381 54.294L6.04786 53.0967Z" fill="#718176"/>
<path d="M7.836 42.4612C8.292 42.4612 8.708 42.4052 9.084 42.2932C9.452 42.1812 9.768 42.0212 10.032 41.8132C10.288 41.5972 10.488 41.3372 10.632 41.0332C10.776 40.7292 10.848 40.3852 10.848 40.0012C10.848 39.6252 10.776 39.2852 10.632 38.9812C10.488 38.6772 10.288 38.4212 10.032 38.2132C9.768 37.9972 9.452 37.8332 9.084 37.7212C8.708 37.6092 8.292 37.5532 7.836 37.5532C7.38 37.5532 6.968 37.6092 6.6 37.7212C6.224 37.8332 5.908 37.9972 5.652 38.2132C5.388 38.4212 5.184 38.6772 5.04 38.9812C4.896 39.2852 4.824 39.6252 4.824 40.0012C4.824 40.3852 4.896 40.7292 5.04 41.0332C5.184 41.3372 5.388 41.5972 5.652 41.8132C5.916 42.0212 6.232 42.1812 6.6 42.2932C6.968 42.4052 7.38 42.4612 7.836 42.4612ZM7.836 35.9692C8.548 35.9692 9.176 36.0772 9.72 36.2932C10.264 36.5012 10.72 36.7892 11.088 37.1572C11.448 37.5172 11.72 37.9412 11.904 38.4292C12.088 38.9172 12.18 39.4372 12.18 39.9892C12.18 40.5412 12.088 41.0652 11.904 41.5612C11.72 42.0492 11.448 42.4772 11.088 42.8452C10.72 43.2052 10.264 43.4932 9.72 43.7092C9.176 43.9252 8.548 44.0332 7.836 44.0332C7.124 44.0332 6.5 43.9252 5.964 43.7092C5.42 43.4932 4.964 43.2012 4.596 42.8332C4.228 42.4572 3.952 42.0252 3.768 41.5372C3.584 41.0492 3.492 40.5332 3.492 39.9892C3.492 39.4452 3.584 38.9292 3.768 38.4412C3.952 37.9532 4.228 37.5292 4.596 37.1692C4.964 36.8012 5.42 36.5092 5.964 36.2932C6.5 36.0772 7.124 35.9692 7.836 35.9692Z" fill="#718176"/>
<path d="M5.31382 26.0108C5.77304 24.9022 6.32683 24.1401 6.97519 23.7246C7.62662 23.3017 8.36992 23.2632 9.20511 23.6091C10.2472 24.0408 10.7403 24.8469 10.6843 26.0273C10.9125 25.9573 11.1853 25.8841 11.5026 25.8077C11.82 25.7314 12.1611 25.6605 12.5259 25.5951C12.8833 25.5267 13.2487 25.4702 13.6222 25.4257C13.9882 25.3782 14.3429 25.3476 14.6863 25.334L14.0388 26.8972C13.7145 26.9274 13.3857 26.9687 13.0523 27.0211C12.7114 27.0704 12.3802 27.128 12.0585 27.1939C11.7324 27.2494 11.4249 27.3125 11.1358 27.3833C10.8393 27.451 10.5733 27.5183 10.3377 27.5852C10.3023 27.6918 10.2692 27.782 10.2386 27.8559C10.208 27.9298 10.1789 28 10.1514 28.0666L9.87124 28.7428L12.7759 29.946L12.1973 31.3429L4.62518 28.2064C4.6921 27.8358 4.79407 27.4538 4.93109 27.0602C5.06072 26.6637 5.1883 26.3139 5.31382 26.0108ZM6.56358 26.4116C6.44112 26.7072 6.33894 26.9853 6.25702 27.2458L8.74041 28.2744L8.99298 27.6647C9.13381 27.3247 9.23932 27.0177 9.30951 26.7437C9.37971 26.4697 9.40197 26.2278 9.3763 26.018C9.3537 25.8008 9.27946 25.6142 9.15359 25.4582C9.02773 25.3021 8.83915 25.1721 8.58785 25.068C8.35134 24.97 8.13341 24.9317 7.93407 24.953C7.73473 24.9744 7.55181 25.0501 7.38532 25.1803C7.22188 25.3031 7.07423 25.4714 6.94237 25.6853C6.80312 25.896 6.67686 26.1381 6.56358 26.4116Z" fill="#718176"/>
<path d="M21.0888 17.8992C20.7154 17.82 20.3081 17.7521 19.8669 17.6956C19.4257 17.639 18.9816 17.6022 18.5347 17.5853C18.0935 17.5626 17.6551 17.5598 17.2195 17.5768C16.7839 17.5937 16.3794 17.6362 16.0061 17.7041L18.645 20.343L17.5759 21.4121L11.6956 15.5318L12.7647 14.4627L15.1915 16.8895C15.1915 16.5161 15.1887 16.123 15.183 15.71C15.1717 15.2914 15.1576 14.8756 15.1406 14.4627C15.1236 14.0384 15.1038 13.634 15.0812 13.2493C15.0586 12.8646 15.0388 12.5167 15.0218 12.2056L16.3031 10.9243C16.3314 11.326 16.3568 11.7474 16.3794 12.1886C16.4021 12.6299 16.4219 13.0796 16.4388 13.5378C16.4502 13.9903 16.4586 14.4457 16.4643 14.9039C16.4756 15.3565 16.4784 15.7949 16.4728 16.2191C16.8914 16.1626 17.3439 16.1343 17.8304 16.1343C18.3169 16.123 18.8175 16.1371 19.3323 16.1767C19.8414 16.2106 20.3534 16.27 20.8682 16.3549C21.3829 16.4284 21.8779 16.5218 22.3531 16.6349L21.0888 17.8992Z" fill="#718176"/>
<path d="M28.2601 12.2531C28.7627 12.0449 29.0934 11.8084 29.2521 11.5435C29.4108 11.2786 29.4259 10.9909 29.2973 10.6805C29.2207 10.4957 29.1143 10.3536 28.9779 10.2543C28.8488 10.1518 28.689 10.0795 28.4983 10.0373C28.312 9.98456 28.0969 9.95672 27.8533 9.95375C27.6065 9.94339 27.3317 9.94897 27.0289 9.97049C26.723 9.98462 26.4215 9.9883 26.1243 9.98152C25.8314 9.96429 25.5537 9.91048 25.2911 9.82009C25.0359 9.72663 24.8002 9.58613 24.584 9.39861C24.3751 9.20801 24.2018 8.94642 24.0641 8.61382C23.7763 7.91907 23.7915 7.27633 24.1096 6.68561C24.4247 6.0875 24.9962 5.617 25.824 5.27411C26.3044 5.07512 26.7523 4.95452 27.1678 4.91231C27.5876 4.85965 27.9307 4.85175 28.1971 4.88861L28.2331 6.19854C27.9237 6.1622 27.6021 6.16983 27.2685 6.22144C26.9422 6.26999 26.6202 6.36009 26.3023 6.49173C25.9254 6.64787 25.6619 6.84793 25.5119 7.09193C25.3692 7.33286 25.356 7.59375 25.4724 7.87461C25.5428 8.04461 25.6373 8.17865 25.7558 8.27675C25.8787 8.36439 26.0229 8.43023 26.1884 8.47427C26.3612 8.51524 26.5494 8.54118 26.7531 8.55206C26.9642 8.55989 27.1885 8.5579 27.4261 8.54609C27.8433 8.52911 28.2215 8.53267 28.5605 8.55677C28.9038 8.57041 29.2114 8.63351 29.4832 8.74608C29.7593 8.8482 30.0026 9.00717 30.2133 9.223C30.4208 9.43143 30.5996 9.71673 30.7496 10.0789C31.0374 10.7736 31.0133 11.4158 30.6773 12.0052C30.3456 12.5842 29.7067 13.0696 28.7607 13.4615C28.4429 13.5931 28.1417 13.6919 27.8573 13.7578C27.5833 13.828 27.3306 13.8764 27.0992 13.903C26.8751 13.9265 26.6769 13.9393 26.5046 13.9414C26.3292 13.9361 26.1865 13.926 26.0764 13.911L26.0136 12.5991C26.259 12.6273 26.5747 12.6265 26.9607 12.5965C27.3466 12.5665 27.7797 12.4521 28.2601 12.2531Z" fill="#718176"/>
<circle cx="52.4997" cy="70.8332" r="1.66667" fill="#626C65"/>
<circle cx="69.9997" cy="25.8332" r="1.66667" fill="#626C65"/>
<circle cx="16.6667" cy="64.1667" r="1.66667" fill="#626C65"/>
</svg>
