<svg xmlns="http://www.w3.org/2000/svg" width="49" height="49" viewBox="0 0 49 49" fill="none">
  <path d="M20.5234 0.137343L37.2105 10.3956L35.887 11.8769L20.0477 2.13833L1.87242 13.3192V35.6873C7.9288 39.4099 13.9913 43.1391 20.0477 46.8617L38.229 35.6808V19.3936L22.9081 37.4349L11.6675 20.9463L22.9081 27.495L49 6.71201L40.0953 17.1977V36.2525C40.0953 36.6488 39.8819 36.9867 39.5708 37.1491L20.5173 48.8692C20.2123 49.0511 19.8525 49.0381 19.5719 48.8627C13.2045 44.9451 6.84317 41.0276 0.475728 37.1101C0.176873 36.9282 0.00609908 36.5969 0.00609908 36.2525L0 12.7475C0 12.3512 0.219567 12.0133 0.53062 11.8509L19.5841 0.130846C19.883 -0.051062 20.2428 -0.0380686 20.5234 0.137343Z" fill="#42454A"/>
</svg>