<svg width="70" height="47" viewBox="0 0 70 47" fill="none" xmlns="http://www.w3.org/2000/svg">
<g id="logo">
<path id="Vector" d="M19.8224 34.0672C16.2438 34.0672 13.3424 31.1453 13.3424 27.5416C13.3424 23.9378 16.2438 21.0159 19.8224 21.0159C22.7683 21.0159 25.2551 22.9955 26.0423 25.7055L37.247 19.1229C34.1299 12.5919 27.499 8.08301 19.8224 8.08301C9.15085 8.08301 0.5 16.7956 0.5 27.5415C0.5 38.2883 9.15085 47.0001 19.8224 47.0001C30.494 47.0001 39.1448 38.2883 39.1448 27.5415H26.3024C26.3024 31.1453 23.4009 34.0672 19.8224 34.0672Z" fill="#42454A"/>
<path id="Vector_2" d="M54.3221 12.2568C45.9397 12.2568 39.1445 19.1006 39.1445 27.5413H50.2926C50.2926 25.2998 52.0963 23.4835 54.3221 23.4835C56.5472 23.4835 58.3516 25.2998 58.3516 27.5413C58.3516 29.7828 56.5472 31.5992 54.3221 31.5992C52.3978 31.5992 50.7888 30.2415 50.3884 28.4244L40.6345 34.1543C43.0835 39.2844 48.2915 42.8258 54.3221 42.8258C62.7045 42.8258 69.4997 35.9828 69.4997 27.5414C69.4997 19.1006 62.7045 12.2568 54.3221 12.2568Z" fill="#42454A"/>
<path id="Vector_3" d="M38.2312 10.2289C41.9928 10.2289 45.7307 9.69808 49.3672 8.72895C50.9483 8.30759 52.6089 8.08303 54.3218 8.08303C55.2523 8.08303 56.167 8.14912 57.062 8.27743C56.6179 5.96225 55.3979 3.92496 53.6862 2.45111C51.9113 0.922598 49.6078 0 47.0893 0H21.2168C24.4809 6.09059 30.8765 10.2289 38.2312 10.2289Z" fill="#42454A"/>
</g>
</svg>
