<svg width="96" height="17" viewBox="0 0 96 17" fill="none" xmlns="http://www.w3.org/2000/svg">
<path d="M8.72727 0L11.0357 5.20317L17.0274 5.6535L12.4623 9.31956L13.857 14.8011L8.72727 11.8636L3.59751 14.8011L4.99222 9.31956L0.427143 5.6535L6.41888 5.20317L8.72727 0Z" fill="#FE8B75"/>
<path d="M28.364 0L30.6724 5.20317L36.6641 5.6535L32.0991 9.31956L33.4938 14.8011L28.364 11.8636L23.2342 14.8011L24.6289 9.31956L20.0639 5.6535L26.0556 5.20317L28.364 0Z" fill="#FE8B75"/>
<path d="M47.9997 0L50.3081 5.20317L56.2999 5.6535L51.7348 9.31956L53.1295 14.8011L47.9997 11.8636L42.87 14.8011L44.2647 9.31956L39.6996 5.6535L45.6913 5.20317L47.9997 0Z" fill="#FE8B75"/>
<path d="M67.6365 0L69.9448 5.20317L75.9366 5.6535L71.3715 9.31956L72.7662 14.8011L67.6365 11.8636L62.5067 14.8011L63.9014 9.31956L59.3363 5.6535L65.3281 5.20317L67.6365 0Z" fill="#FE8B75"/>
<path d="M87.2732 0L89.5816 5.20317L95.5733 5.6535L91.0082 9.31956L92.4029 14.8011L87.2732 11.8636L82.1434 14.8011L83.5381 9.31956L78.973 5.6535L84.9648 5.20317L87.2732 0Z" fill="#FE8B75"/>
</svg>
